<svg xmlns="http://www.w3.org/2000/svg" xmlns:xlink="http://www.w3.org/1999/xlink" version="1.1" preserveAspectRatio="none" x="0px" y="0px" viewBox="0 0 100 125"><defs><g id="a"><path fill="#000000" stroke="none" d=" M 5 77.3 L 22.65 95 95 22.7 77.35 5 5 77.3 M 89.25 22.75 L 86.35 25.65 82.4 21.65 79.5 24.55 83.45 28.55 80.55 31.4 74.3 25.15 71.4 28.05 77.65 34.3 74.8 37.2 70.85 33.2 67.95 36.1 71.9 40.1 69 43 62.75 36.75 59.85 39.6 66.1 45.85 63.2 48.75 59.25 44.75 56.35 47.65 60.3 51.65 57.4 54.55 51.15 48.3 48.3 51.2 54.55 57.45 51.65 60.35 47.7 56.35 44.8 59.2 48.75 63.2 45.85 66.1 39.6 59.85 36.7 62.75 42.95 69 40.05 71.9 36.1 67.9 33.2 70.8 37.15 74.8 34.3 77.7 28.05 71.45 25.15 74.3 31.4 80.55 28.5 83.45 24.55 79.45 21.65 82.35 25.6 86.35 22.7 89.25 10.75 77.25 77.3 10.75 89.25 22.75 Z"/></g></defs><g transform="matrix( 1, 0, 0, 1, 0,0) "><use xlink:href="#a"/></g><text x="0" y="115" fill="#000000" font-size="5px" font-weight="bold" font-family="'Helvetica Neue', Helvetica, Arial-Unicode, Arial, Sans-serif">Created by Ian Dannister</text><text x="0" y="120" fill="#000000" font-size="5px" font-weight="bold" font-family="'Helvetica Neue', Helvetica, Arial-Unicode, Arial, Sans-serif">from the Noun Project</text></svg>